{"title":"Calvin.Marshall.2009.BRRip.H264.Feel-Free","uid":5845687,"size":1608929701,"categoryP":"video","categoryS":"movies","magnet":"?xt=urn:btih:ee4085b195c7c146761d5ad449274e57c9cb5992&amp;dn=Calvin.Marshall.2009.BRRip.H264.Feel-Free&amp;tr=udp%3A%2F%2Ftracker.openbittorrent.com%3A80&amp;tr=udp%3A%2F%2Fopen.demonii.com%3A1337&amp;tr=udp%3A%2F%2Ftracker.coppersurfer.tk%3A6969&amp;tr=udp%3A%2F%2Fexodus.desync.com%3A6969","seeders":0,"leechers":0,"uploader":"hiest","files":-1,"time":1285164012,"description":"Genre:Comedy \nLanguage:English\nIMDb:http://www.imdb.com/title/tt0496673/\nSource:BluRay.x264-HD4U\n\nGeneral\nComplete name :Calvin.Marshall.2009.BRRip.H264.Feel-Free\nFormat : MPEG-4\nFormat profile : Base Media\nCodec ID : isom\nFile size : 1.50 GiB\nDuration : 1h 33mn\nOverall bit rate : 2 304 Kbps\nVideo #1\nID : 1\nFormat : AVC\nFormat/Info : Advanced Video Codec\nFormat profile : &lt;a class=&quot;__cf_email__&quot; href=&quot;/cdn-cgi/l/email-protection&quot; data-cfemail=&quot;e0a28193858c898e85a0acd5ced1&quot;&gt;[email&amp;#160;protected]&lt;/a&gt;&lt;script data-cfhash='f9e31' type=&quot;text/javascript&quot;&gt;\n/* &lt;![CDATA[ */!function(){try{var t=&quot;currentScript&quot;in document?document.currentScript:function(){for(var t=document.getElementsByTagName(&quot;script&quot;),e=t.length;e--;)if(t[e].getAttribute(&quot;data-cfhash&quot;))return t[e]}();if(t&amp;&amp;t.previousSibling){var e,r,n,i,c=t.previousSibling,a=c.getAttribute(&quot;data-cfemail&quot;);if(a){for(e=&quot;&quot;,r=parseInt(a.substr(0,2),16),n=2;a.length-n;n+=2)i=parseInt(a.substr(n,2),16)^r,e+=String.fromCharCode(i);e=document.createTextNode(e),c.parentNode.replaceChild(e,c)}t.parentNode.removeChild(t);}}catch(u){}}()/* ]]&gt; */&lt;/script&gt;\nFormat settings, CABAC : No\nFormat settings, ReFrames : 1 frame\nCodec ID : avc1\nCodec ID/Info : Advanced Video Coding\nDuration : 1h 33mn\nBit rate mode : Variable\nBit rate : 2 076 Kbps\nWidth : 652 pixels\nHeight : 352 pixels\nDisplay aspect ratio : 1.852\nFrame rate mode : Constant\nFrame rate : 23.976 fps\nResolution : 24 bits\nColorimetry : 4:2:0\nScan type : Progressive\nBits/(Pixel*Frame) : 0.377\nStream size : 1.35 GiB (90%)\nAudio #2\nID : 2\nFormat : AAC\nFormat/Info : Advanced Audio Codec\nFormat version : Version 4\nFormat profile : LC\nFormat settings, SBR : No\nCodec ID : 40\nDuration : 1h 33mn\nBit rate mode : Variable\nBit rate : 224 Kbps\nChannel(s) : 6 channels\nChannel positions : Front: L C R, Rear: L R, LFE\nSampling rate : 48.0 KHz\nResolution : 16 bits\nStream size : 149 MiB (10%)\n\nPlot\nA college student is determined to become a Major League Baseball star, but finds his true calling instead\n\n\n\n\n\n\n\n\n================================== &lt;a href=&quot;\nhttp://thepiratebay.se/user/hiest&quot; rel=&quot;nofollow&quot; target=&quot;_NEW&quot;&gt;\nhttp://thepiratebay.se/user/hiest&lt;/a&gt;\n==================================\n\n\n\n\n\n\n\n\nScreenshots:\n &lt;a href=&quot;\nhttp://www.starshare.ro/bitbucket/vlcsnap2010-09-22-14h50m11s89.jpg&quot; rel=&quot;nofollow&quot; target=&quot;_NEW&quot;&gt;\nhttp://www.starshare.ro/bitbucket/vlcsnap2010-09-22-14h50m11s89.jpg&lt;/a&gt;\n &lt;a href=&quot;\nhttp://www.starshare.ro/bitbucket/vlcsnap2010-09-22-14h49m42s30.jpg&quot; rel=&quot;nofollow&quot; target=&quot;_NEW&quot;&gt;\nhttp://www.starshare.ro/bitbucket/vlcsnap2010-09-22-14h49m42s30.jpg&lt;/a&gt;\n &lt;a href=&quot;\nhttp://www.starshare.ro/bitbucket/vlcsnap2010-09-22-14h49m46s82.jpg&quot; rel=&quot;nofollow&quot; target=&quot;_NEW&quot;&gt;\nhttp://www.starshare.ro/bitbucket/vlcsnap2010-09-22-14h49m46s82.jpg&lt;/a&gt;\n &lt;a href=&quot;\nhttp://www.starshare.ro/bitbucket/vlcsnap2010-09-22-14h50m04s11.jpg&quot; rel=&quot;nofollow&quot; target=&quot;_NEW&quot;&gt;\nhttp://www.starshare.ro/bitbucket/vlcsnap2010-09-22-14h50m04s11.jpg&lt;/a&gt;","torrent":{"xt":"urn:btih:ee4085b195c7c146761d5ad449274e57c9cb5992","amp;dn":"Calvin.Marshall.2009.BRRip.H264.Feel-Free","amp;tr":["udp%3A%2F%2Ftracker.openbittorrent.com%3A80","udp%3A%2F%2Fopen.demonii.com%3A1337","udp%3A%2F%2Ftracker.coppersurfer.tk%3A6969","udp%3A%2F%2Fexodus.desync.com%3A6969"],"infoHash":"ee4085b195c7c146761d5ad449274e57c9cb5992","infoHashBuffer":{"type":"Buffer","data":[238,64,133,177,149,199,193,70,118,29,90,212,73,39,78,87,201,203,89,146]},"announce":[],"urlList":[]}}